# xmcd
#
# Track frame offsets:
#	150
#	5473
#	21168
#	33234
#	42339
#	68532
#	83266
#	110531
#	130754
#	149159
#	165690
#	183712
#	201671
#	216669
#	230406
#	259308
#	273665
#	290502
#	307583
#
# Disc length: 4381 seconds
#
# Revision: 1
# Processed by: cddbd v1.5.2PL0 Copyright (c) Steve Scherf et al.
# Submitted via: audiograbber 1.83.01
#
DISCID=1b111b13
DTITLE=Sam Brown - Live at the Jazz Cafe
DYEAR=1993
DGENRE=Blues
TTITLE0=Intro
TTITLE1=Come Into My World
TTITLE2=Into the Night
TTITLE3=In the Rain
TTITLE4=Fear of Life
TTITLE5=The Morning After
TTITLE6=You are the World
TTITLE7=See This Evil
TTITLE8=Your Time is Your Own
TTITLE9=One Candle
TTITLE10=Letting Go
TTITLE11=Sleep Lie a Baby
TTITLE12=I Never Loved a Man
TTITLE13=Merry-go-round
TTITLE14=Stop!
TTITLE15=Piece of my luck
TTITLE16=Henry
TTITLE17=I Can't Stand the Rain
TTITLE18=Come Together
EXTD=Showcase for 43 Minutes
EXTT0=
EXTT1=
EXTT2=
EXTT3=
EXTT4=
EXTT5=
EXTT6=
EXTT7=
EXTT8=
EXTT9=
EXTT10=
EXTT11=
EXTT12=
EXTT13=
EXTT14=
EXTT15=
EXTT16=
EXTT17=
EXTT18=
PLAYORDER=
